<svg width="20" height="20" viewBox="0 0 20 20" fill="none" xmlns="http://www.w3.org/2000/svg">
<g id="Frame">
<path id="Vector" d="M10.0002 1.2002C10.2124 1.2002 10.4159 1.28448 10.5659 1.43451C10.7159 1.58454 10.8002 1.78802 10.8002 2.0002V4.40019C10.8002 4.61237 10.7159 4.81585 10.5659 4.96588C10.4159 5.11591 10.2124 5.20019 10.0002 5.20019C9.78802 5.20019 9.58454 5.11591 9.43451 4.96588C9.28448 4.81585 9.2002 4.61237 9.2002 4.40019V2.0002C9.2002 1.78802 9.28448 1.58454 9.43451 1.43451C9.58454 1.28448 9.78802 1.2002 10.0002 1.2002Z" fill="black"/>
<path id="Vector_2" d="M14.3997 2.37866C14.5835 2.48475 14.7175 2.65949 14.7724 2.86442C14.8274 3.06936 14.7986 3.28772 14.6925 3.47146L13.4925 5.55026C13.4404 5.64198 13.3706 5.72247 13.2872 5.78712C13.2038 5.85176 13.1085 5.89927 13.0067 5.92691C12.9049 5.95455 12.7986 5.96178 12.694 5.94818C12.5893 5.93459 12.4884 5.90043 12.3971 5.84767C12.3057 5.79492 12.2257 5.72462 12.1616 5.64081C12.0975 5.557 12.0506 5.46134 12.0236 5.35934C11.9967 5.25734 11.9902 5.15101 12.0044 5.04648C12.0187 4.94195 12.0536 4.84128 12.1069 4.75026L13.3069 2.67146C13.413 2.48772 13.5877 2.35365 13.7927 2.29874C13.9976 2.24383 14.216 2.27258 14.3997 2.37866Z" fill="#191919"/>
<path id="Vector_3" d="M17.6217 5.60017C17.7278 5.78392 17.7565 6.00227 17.7016 6.20721C17.6467 6.41215 17.5126 6.58688 17.3289 6.69297L15.2501 7.89297C15.0664 7.99739 14.849 8.02492 14.6451 7.96957C14.4412 7.91422 14.2675 7.78048 14.1619 7.59753C14.0562 7.41458 14.0273 7.19728 14.0813 6.99304C14.1353 6.7888 14.2678 6.61421 14.4501 6.50737L16.5289 5.30737C16.7126 5.20129 16.931 5.17254 17.1359 5.22745C17.3409 5.28236 17.5156 5.41643 17.6217 5.60017Z" fill="#333333"/>
<path id="Vector_4" d="M18.7998 10.0002C18.7998 10.1053 18.7791 10.2093 18.7389 10.3063C18.6987 10.4034 18.6398 10.4916 18.5655 10.5659C18.4912 10.6402 18.403 10.6991 18.306 10.7393C18.2089 10.7795 18.1049 10.8002 17.9998 10.8002H15.5998C15.3876 10.8002 15.1841 10.7159 15.0341 10.5659C14.8841 10.4159 14.7998 10.2124 14.7998 10.0002C14.7998 9.78802 14.8841 9.58454 15.0341 9.43451C15.1841 9.28448 15.3876 9.2002 15.5998 9.2002H17.9998C18.1049 9.2002 18.2089 9.22089 18.306 9.26109C18.403 9.3013 18.4912 9.36022 18.5655 9.43451C18.6398 9.5088 18.6987 9.59699 18.7389 9.69405C18.7791 9.79111 18.7998 9.89514 18.7998 10.0002Z" fill="#4C4C4C"/>
<path id="Vector_5" d="M17.6211 14.4002C17.515 14.584 17.3403 14.718 17.1354 14.7729C16.9304 14.8278 16.7121 14.7991 16.5283 14.693L14.4495 13.493C14.3578 13.4409 14.2773 13.3711 14.2127 13.2877C14.148 13.2043 14.1005 13.109 14.0729 13.0072C14.0452 12.9053 14.038 12.7991 14.0516 12.6944C14.0652 12.5898 14.0994 12.4889 14.1521 12.3976C14.2049 12.3062 14.2752 12.2261 14.359 12.1621C14.4428 12.098 14.5384 12.0511 14.6404 12.0241C14.7424 11.9972 14.8488 11.9906 14.9533 12.0049C15.0578 12.0192 15.1585 12.0541 15.2495 12.1074L17.3283 13.3074C17.5121 13.4135 17.6461 13.5882 17.701 13.7932C17.7559 13.9981 17.7272 14.2165 17.6211 14.4002Z" fill="#666666"/>
<path id="Vector_6" d="M14.4003 17.6212C14.2165 17.7273 13.9982 17.756 13.7932 17.7011C13.5883 17.6462 13.4136 17.5121 13.3075 17.3284L12.1075 15.2496C12.0031 15.066 11.9755 14.8485 12.0309 14.6446C12.0862 14.4407 12.22 14.267 12.4029 14.1614C12.5859 14.0558 12.8032 14.0268 13.0074 14.0808C13.2116 14.1348 13.3862 14.2674 13.4931 14.4496L14.6931 16.5284C14.7992 16.7121 14.8279 16.9305 14.773 17.1354C14.7181 17.3404 14.584 17.5151 14.4003 17.6212Z" fill="#7F7F7F"/>
<path id="Vector_7" d="M10.0002 18.7998C9.89514 18.7998 9.79111 18.7791 9.69405 18.7389C9.59699 18.6987 9.5088 18.6398 9.43451 18.5655C9.36022 18.4912 9.3013 18.403 9.26109 18.306C9.22089 18.2089 9.2002 18.1049 9.2002 17.9998V15.5998C9.2002 15.3876 9.28448 15.1841 9.43451 15.0341C9.58454 14.8841 9.78802 14.7998 10.0002 14.7998C10.2124 14.7998 10.4159 14.8841 10.5659 15.0341C10.7159 15.1841 10.8002 15.3876 10.8002 15.5998V17.9998C10.8002 18.1049 10.7795 18.2089 10.7393 18.306C10.6991 18.403 10.6402 18.4912 10.5659 18.5655C10.4916 18.6398 10.4034 18.6987 10.3063 18.7389C10.2093 18.7791 10.1053 18.7998 10.0002 18.7998Z" fill="#999999"/>
<path id="Vector_8" d="M5.60017 17.6211C5.41643 17.515 5.28236 17.3403 5.22745 17.1354C5.17254 16.9304 5.20129 16.7121 5.30737 16.5283L6.50737 14.4495C6.55952 14.3578 6.62929 14.2773 6.71267 14.2127C6.79606 14.148 6.8914 14.1005 6.99322 14.0729C7.09504 14.0452 7.20132 14.038 7.30594 14.0516C7.41057 14.0652 7.51147 14.0994 7.60284 14.1521C7.6942 14.2049 7.77424 14.2752 7.83832 14.359C7.90241 14.4428 7.94929 14.5384 7.97625 14.6404C8.00322 14.7424 8.00974 14.8488 7.99545 14.9533C7.98116 15.0578 7.94633 15.1585 7.89297 15.2495L6.69297 17.3283C6.58688 17.5121 6.41215 17.6461 6.20721 17.701C6.00227 17.7559 5.78392 17.7272 5.60017 17.6211Z" fill="#ACACAC"/>
<path id="Vector_9" d="M2.37866 14.3998C2.27258 14.216 2.24383 13.9977 2.29874 13.7928C2.35365 13.5878 2.48772 13.4131 2.67146 13.307L4.75026 12.107C4.93391 12.0026 5.1514 11.975 5.35527 12.0304C5.55915 12.0857 5.73285 12.2195 5.83848 12.4024C5.94411 12.5854 5.97309 12.8027 5.91909 13.0069C5.8651 13.2112 5.73251 13.3857 5.55026 13.4926L3.47146 14.6926C3.28772 14.7987 3.06936 14.8274 2.86442 14.7725C2.65949 14.7176 2.48475 14.5835 2.37866 14.3998Z" fill="#BFBFBF"/>
<path id="Vector_10" d="M1.2002 10.0002C1.2002 9.78802 1.28448 9.58454 1.43451 9.43451C1.58454 9.28448 1.78802 9.2002 2.0002 9.2002H4.40019C4.61237 9.2002 4.81585 9.28448 4.96588 9.43451C5.11591 9.58454 5.20019 9.78802 5.20019 10.0002C5.20019 10.2124 5.11591 10.4159 4.96588 10.5659C4.81585 10.7159 4.61237 10.8002 4.40019 10.8002H2.0002C1.78802 10.8002 1.58454 10.7159 1.43451 10.5659C1.28448 10.4159 1.2002 10.2124 1.2002 10.0002Z" fill="#CCCCCC"/>
<path id="Vector_11" d="M2.37866 5.60017C2.48475 5.41643 2.65949 5.28236 2.86442 5.22745C3.06936 5.17254 3.28772 5.20129 3.47146 5.30737L5.55026 6.50737C5.64198 6.55952 5.72247 6.62929 5.78712 6.71267C5.85176 6.79606 5.89927 6.8914 5.92691 6.99322C5.95455 7.09504 5.96178 7.20132 5.94818 7.30594C5.93459 7.41057 5.90043 7.51147 5.84767 7.60284C5.79492 7.6942 5.72462 7.77424 5.64081 7.83832C5.557 7.90241 5.46134 7.94929 5.35934 7.97625C5.25734 8.00322 5.15101 8.00974 5.04648 7.99545C4.94195 7.98116 4.84128 7.94633 4.75026 7.89297L2.67146 6.69297C2.48772 6.58688 2.35365 6.41215 2.29874 6.20721C2.24383 6.00227 2.27258 5.78392 2.37866 5.60017Z" fill="#E5E5E5"/>
<path id="Vector_12" d="M5.60017 2.37866C5.78392 2.27258 6.00227 2.24383 6.20721 2.29874C6.41215 2.35365 6.58688 2.48772 6.69297 2.67146L7.89297 4.75026C7.99739 4.93391 8.02492 5.1514 7.96957 5.35527C7.91422 5.55915 7.78048 5.73285 7.59753 5.83848C7.41458 5.94411 7.19728 5.97309 6.99304 5.91909C6.7888 5.8651 6.61421 5.73251 6.50737 5.55026L5.30737 3.47146C5.20129 3.28772 5.17254 3.06936 5.22745 2.86442C5.28236 2.65949 5.41643 2.48475 5.60017 2.37866Z" fill="#F2F2F2"/>
</g>
</svg>
