<svg width="3400" height="3400" viewBox="0 0 3400 3400" fill="none" xmlns="http://www.w3.org/2000/svg">
<rect width="3400" height="3400" rx="2" fill="white"/>
<rect x="0.5" y="0.5" width="3399" height="3399" rx="1.5" stroke="black" stroke-opacity="0.1"/>
<path d="M1688.33 703C2238.78 703 2685 1149.22 2685 1699.67C2685 2250.11 2238.78 2696.33 1688.33 2696.33H1113.33V2313H1688.33C2027.07 2313 2301.67 2038.4 2301.67 1699.67C2301.67 1360.93 2027.07 1086.33 1688.33 1086.33H1113.33V703H1688.33Z" fill="#2B2C3E"/>
<rect x="730" y="1086.33" width="383.333" height="1226.67" fill="#2B2C3E"/>
<path d="M1688.33 1508C1794.19 1508 1880 1593.81 1880 1699.67C1880 1805.52 1794.19 1891.33 1688.33 1891.33L730 1891.33L730 1508L1688.33 1508Z" fill="#2B2C3E"/>
</svg>
