<svg width="3424" height="1511" viewBox="0 0 3424 1511" fill="none" xmlns="http://www.w3.org/2000/svg">
<path d="M1838.17 920.565C1815.19 920.565 1794.36 915.509 1775.66 905.397C1757.28 894.978 1742.72 880.883 1732 863.11C1721.27 845.337 1715.91 825.42 1715.91 803.357C1715.91 781.294 1721.27 761.53 1732 744.064C1742.72 726.597 1757.28 712.808 1775.66 702.696C1794.05 692.278 1814.89 687.069 1838.17 687.069C1861.46 687.069 1882.3 692.125 1900.68 702.237C1919.07 712.349 1933.63 726.291 1944.35 744.064C1955.08 761.53 1960.44 781.294 1960.44 803.357C1960.44 825.42 1955.08 845.337 1944.35 863.11C1933.63 880.883 1919.07 894.978 1900.68 905.397C1882.3 915.509 1861.46 920.565 1838.17 920.565ZM1838.17 856.675C1848.29 856.675 1857.17 854.53 1864.83 850.24C1872.49 845.644 1878.32 839.362 1882.3 831.395C1886.59 823.122 1888.73 813.776 1888.73 803.357C1888.73 792.939 1886.59 783.899 1882.3 776.238C1878.01 768.271 1872.03 762.143 1864.37 757.853C1857.02 753.257 1848.29 750.958 1838.17 750.958C1828.37 750.958 1819.64 753.257 1811.97 757.853C1804.31 762.143 1798.34 768.271 1794.05 776.238C1789.76 784.206 1787.61 793.398 1787.61 803.817C1787.61 813.929 1789.76 823.122 1794.05 831.395C1798.34 839.362 1804.31 845.644 1811.97 850.24C1819.64 854.53 1828.37 856.675 1838.17 856.675Z" fill="#2B2C3E"/>
<path d="M1540.74 915.509V692.125H1611.06V915.509H1540.74ZM1611.06 792.786L1581.65 769.804C1587.47 743.757 1597.28 723.533 1611.06 709.131C1624.85 694.729 1644.01 687.528 1668.52 687.528C1679.24 687.528 1688.59 689.214 1696.56 692.584C1704.83 695.649 1712.03 700.551 1718.16 707.293L1676.33 760.151C1673.27 756.781 1669.44 754.176 1664.84 752.337C1660.25 750.499 1655.04 749.58 1649.21 749.58C1637.57 749.58 1628.22 753.257 1621.18 760.611C1614.44 767.659 1611.06 778.384 1611.06 792.786Z" fill="#2B2C3E"/>
<path d="M2397.8 624.324V915.233H2327.49V624.324H2397.8Z" fill="#2B2C3E"/>
<path d="M2566.33 624.324C2595.97 624.324 2621.49 630.148 2642.89 641.796C2664.39 653.349 2680.96 670.015 2692.61 691.796C2704.26 713.481 2710.08 739.428 2710.08 769.636C2710.08 799.939 2704.26 825.981 2692.61 847.761C2681.06 869.542 2664.53 886.255 2643.04 897.903C2621.54 909.456 2596.02 915.233 2566.47 915.233H2458.95V734H2529.26V855.29H2563.77C2580.06 855.29 2593.84 852.544 2605.11 847.052C2616.47 841.464 2625.04 832.421 2630.82 819.921C2636.69 807.326 2639.63 790.565 2639.63 769.636C2639.63 748.708 2636.69 732.042 2630.82 719.636C2624.95 707.137 2616.28 698.141 2604.83 692.648C2593.46 687.061 2579.45 684.267 2562.78 684.267H2539V684.255L2458.95 684.04V624.324H2566.33Z" fill="#2B2C3E"/>
<path d="M1449.74 915.505H1377.58V704H1449.74V915.505ZM1551.32 653.97H1449.74V654H1377.58V653.97H1276V591H1551.32V653.97Z" fill="#2B2C3E"/>
<path d="M2065.5 915.509H1995.44V692.125H2065.5V915.509ZM2128.28 687.528C2144.83 687.528 2159.38 691.512 2171.94 699.479C2184.81 707.14 2194.93 717.405 2202.28 730.275C2209.63 743.145 2213.31 757.24 2213.31 772.561V915.509H2142.99V788.189C2142.99 776.545 2139.31 767.199 2131.96 760.151C2124.91 752.797 2115.87 749.12 2104.84 749.12C2101.56 749.12 2098.44 749.429 2095.5 750.048V692.667C2105.64 689.241 2116.57 687.528 2128.28 687.528Z" fill="#2B2C3E"/>
<path d="M2831.45 741.086H2963.97V798.33H2831.45V858.131H2963.97V915.233H2761.13V741H2831.45V741.086ZM2963.97 681.427H2831.45V681.463L2761.13 681.274V624.324H2963.97V681.427Z" fill="#2B2C3E"/>
<path d="M710 496C853.594 496 970 612.406 970 756C970 899.594 853.594 1016 710 1016H560V916H710C798.366 916 870 844.366 870 756C870 667.634 798.366 596 710 596H560V496H710Z" fill="#2B2C3E"/>
<path d="M710 706C737.614 706 760 728.386 760 756C760 783.614 737.614 806 710 806L460 806L460 706L710 706Z" fill="#2B2C3E"/>
</svg>
