<svg width="3424" height="1511" viewBox="0 0 3424 1511" fill="none" xmlns="http://www.w3.org/2000/svg">
<rect width="3424" height="1511" rx="2" fill="#2B2C3E"/>
<rect x="0.5" y="0.5" width="3423" height="1510" rx="1.5" stroke="black" stroke-opacity="0.1"/>
<path d="M1430.17 1267.56C1407.19 1267.56 1386.36 1262.51 1367.66 1252.4C1349.28 1241.98 1334.72 1227.88 1324 1210.11C1313.27 1192.34 1307.91 1172.42 1307.91 1150.36C1307.91 1128.29 1313.27 1108.53 1324 1091.06C1334.72 1073.6 1349.28 1059.81 1367.66 1049.7C1386.05 1039.28 1406.89 1034.07 1430.17 1034.07C1453.46 1034.07 1474.3 1039.12 1492.68 1049.24C1511.07 1059.35 1525.63 1073.29 1536.35 1091.06C1547.08 1108.53 1552.44 1128.29 1552.44 1150.36C1552.44 1172.42 1547.08 1192.34 1536.35 1210.11C1525.63 1227.88 1511.07 1241.98 1492.68 1252.4C1474.3 1262.51 1453.46 1267.56 1430.17 1267.56ZM1430.17 1203.68C1440.29 1203.68 1449.17 1201.53 1456.83 1197.24C1464.49 1192.64 1470.32 1186.36 1474.3 1178.4C1478.59 1170.12 1480.73 1160.78 1480.73 1150.36C1480.73 1139.94 1478.59 1130.9 1474.3 1123.24C1470.01 1115.27 1464.03 1109.14 1456.37 1104.85C1449.02 1100.26 1440.29 1097.96 1430.17 1097.96C1420.37 1097.96 1411.64 1100.26 1403.97 1104.85C1396.31 1109.14 1390.34 1115.27 1386.05 1123.24C1381.76 1131.21 1379.61 1140.4 1379.61 1150.82C1379.61 1160.93 1381.76 1170.12 1386.05 1178.4C1390.34 1186.36 1396.31 1192.64 1403.97 1197.24C1411.64 1201.53 1420.37 1203.68 1430.17 1203.68Z" fill="white"/>
<path d="M1132.74 1262.51V1039.12H1203.06V1262.51H1132.74ZM1203.06 1139.79L1173.65 1116.8C1179.47 1090.76 1189.28 1070.53 1203.06 1056.13C1216.85 1041.73 1236.01 1034.53 1260.52 1034.53C1271.24 1034.53 1280.59 1036.21 1288.56 1039.58C1296.83 1042.65 1304.03 1047.55 1310.16 1054.29L1268.33 1107.15C1265.27 1103.78 1261.44 1101.18 1256.84 1099.34C1252.25 1097.5 1247.04 1096.58 1241.21 1096.58C1229.57 1096.58 1220.22 1100.26 1213.18 1107.61C1206.44 1114.66 1203.06 1125.38 1203.06 1139.79Z" fill="white"/>
<path d="M1989.8 971.324V1262.23H1919.49V971.324H1989.8Z" fill="white"/>
<path d="M2158.33 971.324C2187.97 971.324 2213.49 977.148 2234.89 988.796C2256.39 1000.35 2272.96 1017.02 2284.61 1038.8C2296.26 1060.48 2302.08 1086.43 2302.08 1116.64C2302.08 1146.94 2296.26 1172.98 2284.61 1194.76C2273.06 1216.54 2256.53 1233.26 2235.04 1244.9C2213.54 1256.46 2188.02 1262.23 2158.47 1262.23H2050.95V1081H2121.26V1202.29H2155.77C2172.06 1202.29 2185.84 1199.54 2197.11 1194.05C2208.47 1188.46 2217.04 1179.42 2222.82 1166.92C2228.69 1154.33 2231.63 1137.56 2231.63 1116.64C2231.63 1095.71 2228.69 1079.04 2222.82 1066.64C2216.95 1054.14 2208.28 1045.14 2196.83 1039.65C2185.46 1034.06 2171.45 1031.27 2154.78 1031.27H2131V1031.25L2050.95 1031.04V971.324H2158.33Z" fill="white"/>
<path d="M1041.74 1262.5H969.58V1051H1041.74V1262.5ZM1143.32 1000.97H1041.74V1001H969.58V1000.97H868V938H1143.32V1000.97Z" fill="white"/>
<path d="M1657.5 1262.51H1587.44V1039.12H1657.5V1262.51ZM1720.28 1034.53C1736.83 1034.53 1751.38 1038.51 1763.94 1046.48C1776.81 1054.14 1786.93 1064.41 1794.28 1077.28C1801.63 1090.14 1805.31 1104.24 1805.31 1119.56V1262.51H1734.99V1135.19C1734.99 1123.55 1731.31 1114.2 1723.96 1107.15C1716.91 1099.8 1707.87 1096.12 1696.84 1096.12C1693.56 1096.12 1690.44 1096.43 1687.5 1097.05V1039.67C1697.64 1036.24 1708.57 1034.53 1720.28 1034.53Z" fill="white"/>
<path d="M2423.45 1088.09H2555.97V1145.33H2423.45V1205.13H2555.97V1262.23H2353.13V1088H2423.45V1088.09ZM2555.97 1028.43H2423.45V1028.46L2353.13 1028.27V971.324H2555.97V1028.43Z" fill="white"/>
<path d="M1707 244C1850.59 244 1967 360.406 1967 504C1967 647.594 1850.59 764 1707 764H1557V664H1707C1795.37 664 1867 592.366 1867 504C1867 415.634 1795.37 344 1707 344H1557V244H1707Z" fill="white"/>
<rect x="1457" y="344" width="100" height="320" fill="white"/>
<path d="M1707 454C1734.61 454 1757 476.386 1757 504C1757 531.614 1734.61 554 1707 554L1457 554L1457 454L1707 454Z" fill="white"/>
</svg>
